<mxfile host="Electron" modified="2024-04-17T07:15:58.470Z" agent="Mozilla/5.0 (Windows NT 10.0; Win64; x64) AppleWebKit/537.36 (KHTML, like Gecko) draw.io/22.1.21 Chrome/120.0.6099.109 Electron/28.1.0 Safari/537.36" etag="u5h4FBrSds4XmL713caV" version="22.1.21" type="device">
  <diagram name="Page-1" id="FuJG081DVoGHT-yCMkKH">
    <mxGraphModel dx="2333" dy="1398" grid="1" gridSize="10" guides="1" tooltips="1" connect="1" arrows="1" fold="1" page="1" pageScale="1" pageWidth="850" pageHeight="1100" math="0" shadow="0">
      <root>
        <mxCell id="0" />
        <mxCell id="1" parent="0" />
        <mxCell id="gGQR3BGDS3XJ4NjZLxbG-3" value="" style="edgeStyle=orthogonalEdgeStyle;rounded=0;sketch=1;hachureGap=4;jiggle=2;curveFitting=1;orthogonalLoop=1;jettySize=auto;html=1;fontFamily=Architects Daughter;fontSource=https%3A%2F%2Ffonts.googleapis.com%2Fcss%3Ffamily%3DArchitects%2BDaughter;fontSize=16;" edge="1" parent="1" source="gGQR3BGDS3XJ4NjZLxbG-1" target="gGQR3BGDS3XJ4NjZLxbG-2">
          <mxGeometry relative="1" as="geometry" />
        </mxCell>
        <mxCell id="gGQR3BGDS3XJ4NjZLxbG-1" value="Application" style="rounded=0;whiteSpace=wrap;html=1;sketch=1;hachureGap=4;jiggle=2;curveFitting=1;fontFamily=Architects Daughter;fontSource=https%3A%2F%2Ffonts.googleapis.com%2Fcss%3Ffamily%3DArchitects%2BDaughter;fontSize=20;" vertex="1" parent="1">
          <mxGeometry x="360" y="300" width="120" height="60" as="geometry" />
        </mxCell>
        <mxCell id="gGQR3BGDS3XJ4NjZLxbG-5" value="" style="edgeStyle=orthogonalEdgeStyle;rounded=0;sketch=1;hachureGap=4;jiggle=2;curveFitting=1;orthogonalLoop=1;jettySize=auto;html=1;fontFamily=Architects Daughter;fontSource=https%3A%2F%2Ffonts.googleapis.com%2Fcss%3Ffamily%3DArchitects%2BDaughter;fontSize=16;" edge="1" parent="1" source="gGQR3BGDS3XJ4NjZLxbG-2" target="gGQR3BGDS3XJ4NjZLxbG-4">
          <mxGeometry relative="1" as="geometry" />
        </mxCell>
        <mxCell id="gGQR3BGDS3XJ4NjZLxbG-2" value="MainActivity" style="rounded=0;whiteSpace=wrap;html=1;sketch=1;hachureGap=4;jiggle=2;curveFitting=1;fontFamily=Architects Daughter;fontSource=https%3A%2F%2Ffonts.googleapis.com%2Fcss%3Ffamily%3DArchitects%2BDaughter;fontSize=20;" vertex="1" parent="1">
          <mxGeometry x="360" y="440" width="120" height="60" as="geometry" />
        </mxCell>
        <mxCell id="gGQR3BGDS3XJ4NjZLxbG-7" value="" style="edgeStyle=orthogonalEdgeStyle;rounded=0;sketch=1;hachureGap=4;jiggle=2;curveFitting=1;orthogonalLoop=1;jettySize=auto;html=1;fontFamily=Architects Daughter;fontSource=https%3A%2F%2Ffonts.googleapis.com%2Fcss%3Ffamily%3DArchitects%2BDaughter;fontSize=16;" edge="1" parent="1" source="gGQR3BGDS3XJ4NjZLxbG-4" target="gGQR3BGDS3XJ4NjZLxbG-6">
          <mxGeometry relative="1" as="geometry" />
        </mxCell>
        <mxCell id="gGQR3BGDS3XJ4NjZLxbG-4" value="Password&lt;br&gt;Manager&lt;br&gt;App" style="rounded=0;whiteSpace=wrap;html=1;sketch=1;hachureGap=4;jiggle=2;curveFitting=1;fontFamily=Architects Daughter;fontSource=https%3A%2F%2Ffonts.googleapis.com%2Fcss%3Ffamily%3DArchitects%2BDaughter;fontSize=20;" vertex="1" parent="1">
          <mxGeometry x="330" y="580" width="180" height="90" as="geometry" />
        </mxCell>
        <mxCell id="gGQR3BGDS3XJ4NjZLxbG-9" value="" style="edgeStyle=orthogonalEdgeStyle;rounded=0;sketch=1;hachureGap=4;jiggle=2;curveFitting=1;orthogonalLoop=1;jettySize=auto;html=1;fontFamily=Architects Daughter;fontSource=https%3A%2F%2Ffonts.googleapis.com%2Fcss%3Ffamily%3DArchitects%2BDaughter;fontSize=16;" edge="1" parent="1" source="gGQR3BGDS3XJ4NjZLxbG-6" target="gGQR3BGDS3XJ4NjZLxbG-8">
          <mxGeometry relative="1" as="geometry" />
        </mxCell>
        <mxCell id="gGQR3BGDS3XJ4NjZLxbG-6" value="HomeScreenViewModel" style="rounded=0;whiteSpace=wrap;html=1;sketch=1;hachureGap=4;jiggle=2;curveFitting=1;fontFamily=Architects Daughter;fontSource=https%3A%2F%2Ffonts.googleapis.com%2Fcss%3Ffamily%3DArchitects%2BDaughter;fontSize=20;" vertex="1" parent="1">
          <mxGeometry x="295" y="750" width="250" height="90" as="geometry" />
        </mxCell>
        <mxCell id="gGQR3BGDS3XJ4NjZLxbG-11" value="" style="edgeStyle=orthogonalEdgeStyle;rounded=0;sketch=1;hachureGap=4;jiggle=2;curveFitting=1;orthogonalLoop=1;jettySize=auto;html=1;fontFamily=Architects Daughter;fontSource=https%3A%2F%2Ffonts.googleapis.com%2Fcss%3Ffamily%3DArchitects%2BDaughter;fontSize=16;" edge="1" parent="1" source="gGQR3BGDS3XJ4NjZLxbG-8" target="gGQR3BGDS3XJ4NjZLxbG-10">
          <mxGeometry relative="1" as="geometry" />
        </mxCell>
        <mxCell id="gGQR3BGDS3XJ4NjZLxbG-8" value="GetAllPasswordsUseCase" style="rounded=0;whiteSpace=wrap;html=1;sketch=1;hachureGap=4;jiggle=2;curveFitting=1;fontFamily=Architects Daughter;fontSource=https%3A%2F%2Ffonts.googleapis.com%2Fcss%3Ffamily%3DArchitects%2BDaughter;fontSize=20;" vertex="1" parent="1">
          <mxGeometry x="295" y="920" width="250" height="90" as="geometry" />
        </mxCell>
        <mxCell id="gGQR3BGDS3XJ4NjZLxbG-13" value="" style="edgeStyle=orthogonalEdgeStyle;rounded=0;sketch=1;hachureGap=4;jiggle=2;curveFitting=1;orthogonalLoop=1;jettySize=auto;html=1;fontFamily=Architects Daughter;fontSource=https%3A%2F%2Ffonts.googleapis.com%2Fcss%3Ffamily%3DArchitects%2BDaughter;fontSize=16;" edge="1" parent="1" source="gGQR3BGDS3XJ4NjZLxbG-10" target="gGQR3BGDS3XJ4NjZLxbG-12">
          <mxGeometry relative="1" as="geometry" />
        </mxCell>
        <mxCell id="gGQR3BGDS3XJ4NjZLxbG-10" value="PasswordRepository" style="rounded=0;whiteSpace=wrap;html=1;sketch=1;hachureGap=4;jiggle=2;curveFitting=1;fontFamily=Architects Daughter;fontSource=https%3A%2F%2Ffonts.googleapis.com%2Fcss%3Ffamily%3DArchitects%2BDaughter;fontSize=20;" vertex="1" parent="1">
          <mxGeometry x="295" y="1090" width="250" height="90" as="geometry" />
        </mxCell>
        <mxCell id="gGQR3BGDS3XJ4NjZLxbG-15" value="" style="edgeStyle=orthogonalEdgeStyle;rounded=0;sketch=1;hachureGap=4;jiggle=2;curveFitting=1;orthogonalLoop=1;jettySize=auto;html=1;fontFamily=Architects Daughter;fontSource=https%3A%2F%2Ffonts.googleapis.com%2Fcss%3Ffamily%3DArchitects%2BDaughter;fontSize=16;" edge="1" parent="1" source="gGQR3BGDS3XJ4NjZLxbG-12" target="gGQR3BGDS3XJ4NjZLxbG-14">
          <mxGeometry relative="1" as="geometry" />
        </mxCell>
        <mxCell id="gGQR3BGDS3XJ4NjZLxbG-12" value="PasswordsDAO" style="rounded=0;whiteSpace=wrap;html=1;sketch=1;hachureGap=4;jiggle=2;curveFitting=1;fontFamily=Architects Daughter;fontSource=https%3A%2F%2Ffonts.googleapis.com%2Fcss%3Ffamily%3DArchitects%2BDaughter;fontSize=20;" vertex="1" parent="1">
          <mxGeometry x="295" y="1260" width="250" height="90" as="geometry" />
        </mxCell>
        <mxCell id="gGQR3BGDS3XJ4NjZLxbG-17" value="" style="edgeStyle=orthogonalEdgeStyle;rounded=0;sketch=1;hachureGap=4;jiggle=2;curveFitting=1;orthogonalLoop=1;jettySize=auto;html=1;fontFamily=Architects Daughter;fontSource=https%3A%2F%2Ffonts.googleapis.com%2Fcss%3Ffamily%3DArchitects%2BDaughter;fontSize=16;" edge="1" parent="1" source="gGQR3BGDS3XJ4NjZLxbG-14" target="gGQR3BGDS3XJ4NjZLxbG-16">
          <mxGeometry relative="1" as="geometry" />
        </mxCell>
        <mxCell id="gGQR3BGDS3XJ4NjZLxbG-14" value="PasswordManagerDatabase" style="rounded=0;whiteSpace=wrap;html=1;sketch=1;hachureGap=4;jiggle=2;curveFitting=1;fontFamily=Architects Daughter;fontSource=https%3A%2F%2Ffonts.googleapis.com%2Fcss%3Ffamily%3DArchitects%2BDaughter;fontSize=20;" vertex="1" parent="1">
          <mxGeometry x="295" y="1430" width="250" height="90" as="geometry" />
        </mxCell>
        <mxCell id="gGQR3BGDS3XJ4NjZLxbG-16" value="PasswordEntity" style="rounded=0;whiteSpace=wrap;html=1;sketch=1;hachureGap=4;jiggle=2;curveFitting=1;fontFamily=Architects Daughter;fontSource=https%3A%2F%2Ffonts.googleapis.com%2Fcss%3Ffamily%3DArchitects%2BDaughter;fontSize=20;" vertex="1" parent="1">
          <mxGeometry x="295" y="1600" width="250" height="90" as="geometry" />
        </mxCell>
        <mxCell id="gGQR3BGDS3XJ4NjZLxbG-18" value="GeneratePasswordUseCase" style="rounded=0;whiteSpace=wrap;html=1;sketch=1;hachureGap=4;jiggle=2;curveFitting=1;fontFamily=Architects Daughter;fontSource=https%3A%2F%2Ffonts.googleapis.com%2Fcss%3Ffamily%3DArchitects%2BDaughter;fontSize=20;fillColor=#f8cecc;strokeColor=#b85450;" vertex="1" parent="1">
          <mxGeometry x="570" y="920" width="300" height="90" as="geometry" />
        </mxCell>
      </root>
    </mxGraphModel>
  </diagram>
</mxfile>
